<svg width="1024" height="1024" viewBox="0 0 1024 1024" fill="none" xmlns="http://www.w3.org/2000/svg">
<rect width="1024" height="1024" fill="white"/>
<path fill-rule="evenodd" clip-rule="evenodd" d="M336.852 452.972C359.406 452.972 379.835 456.737 398.14 464.268C416.444 471.799 430.826 484.079 441.286 501.105C452.072 518.132 457.465 540.726 457.465 568.886V696.095C457.465 724.254 452.072 746.848 441.286 763.875C430.826 780.901 416.444 793.18 398.14 800.711C379.835 808.242 359.406 812.008 336.852 812.008H216.047V453.014H247.793C248.54 452.987 249.299 452.972 250.069 452.972H336.852ZM294.354 745.21H336.852C350.58 745.21 361.367 741.282 369.212 733.423C377.057 725.237 380.979 712.794 380.979 696.095V568.886C380.979 552.186 377.057 539.907 369.212 532.048C361.367 523.863 350.58 519.769 336.852 519.769H294.354V745.21Z" fill="black"/>
<path d="M768.051 452.972C768.878 452.972 769.698 452.986 770.513 453.014H807.493V812.008H729.186V655.329H633.376V812.008H555.069V453.014H591.527C592.344 452.986 593.167 452.972 593.994 452.972C594.821 452.972 595.641 452.986 596.456 453.014H633.376V596.39H729.186V453.014H765.583C766.4 452.986 767.223 452.972 768.051 452.972Z" fill="black"/>
<path d="M505.321 432.711H479.526V406.871H505.321V432.711Z" fill="black"/>
<path d="M541.25 432.711H515.455V406.871H541.25V432.711Z" fill="black"/>
<path d="M362.987 310.431H372.66V242.139L402.14 213.992H582.707L348.247 432.249H169.984L310.936 300.28V213.992H362.987V310.431Z" fill="black"/>
<path d="M854.016 432.249H674.371L521.443 287.821L598.828 213.992H621.86L854.016 432.249Z" fill="black"/>
<path d="M505.321 397.642H479.526V371.802H505.321V397.642Z" fill="black"/>
<path d="M541.25 397.642H515.455V371.802H541.25V397.642Z" fill="black"/>
</svg>
