<svg width="309" height="277" viewBox="0 0 309 277" fill="none" xmlns="http://www.w3.org/2000/svg">
<g clip-path="url(#clip0_133_4502)">
<path d="M299.201 169.644C289.43 195.799 269.477 224.111 241.397 232.495C198.944 245.165 193.902 279.36 117.91 276.19C106.809 275.781 95.7857 274.166 85.0343 271.374C79.7859 269.987 74.6303 268.27 69.5983 266.233C25.2007 248.25 2.04344 208.675 0.126376 167.269C-2.40759 112.802 35.5887 86.845 60.285 71.6479C84.9812 56.4507 114.745 -2.42102 189.471 0.0797808C200.882 0.422157 212.216 2.07817 223.248 5.01505C248.396 11.821 273.954 26.8722 288.813 48.8753C289.928 50.5336 290.993 52.223 292.011 53.9432C311.898 87.6742 312.514 133.982 299.201 169.644Z" fill="#B1B1B1"/>
<path opacity="0.92" d="M299.201 169.644C289.43 195.799 269.477 224.111 241.397 232.495C198.944 245.165 193.902 279.36 117.91 276.19C106.809 275.781 95.7857 274.166 85.0343 271.374C79.7859 269.987 74.6303 268.27 69.5983 266.233C25.2007 248.25 2.04344 208.675 0.126376 167.269C-2.40759 112.802 35.5887 86.845 60.285 71.6479C84.9812 56.4507 114.745 -2.42102 189.471 0.0797808C200.882 0.422157 212.216 2.07817 223.248 5.01505C248.396 11.821 273.954 26.8722 288.813 48.8753C289.928 50.5336 290.993 52.223 292.011 53.9432C311.898 87.6742 312.514 133.982 299.201 169.644Z" fill="white"/>
<path d="M290.544 214.731C290.584 214.731 291.3 211.726 291.32 211.527C291.592 209.258 290.77 204.708 288.441 203.64C288.049 203.473 287.627 203.392 287.201 203.4C286.775 203.408 286.356 203.505 285.97 203.686C285.585 203.867 285.242 204.127 284.964 204.449C284.685 204.772 284.478 205.149 284.355 205.557C283.771 207.268 284.601 209.338 285.556 210.751C286.69 212.409 290.544 214.731 290.544 214.731Z" fill="#B1B1B1"/>
<path d="M245.039 214.698C246.896 215.461 251.387 215.268 251.394 215.262C251.4 215.255 250.366 212.343 250.273 212.164C249.244 210.121 246.054 206.777 243.52 207.175C243.101 207.252 242.704 207.417 242.354 207.658C242.003 207.899 241.707 208.211 241.486 208.574C241.264 208.937 241.122 209.343 241.068 209.765C241.013 210.187 241.049 210.616 241.172 211.023C241.629 212.774 243.46 214.048 245.039 214.698Z" fill="#B1B1B1"/>
<path d="M246.89 227.686C248.807 227.925 252.793 226.678 253.112 226.578C253.818 228.863 254.678 231.097 255.686 233.265C256.263 234.532 256.886 235.786 257.53 237.039C257.152 236.509 256.807 236.044 256.754 235.978C255.221 234.28 251.261 231.898 248.919 232.953C248.537 233.139 248.198 233.403 247.924 233.728C247.651 234.053 247.449 234.433 247.331 234.841C247.213 235.25 247.183 235.678 247.242 236.099C247.301 236.52 247.447 236.924 247.672 237.285C248.574 238.857 250.677 239.593 252.369 239.805C254.06 240.018 257.516 239.023 258.419 238.744C258.664 239.228 258.909 239.706 259.162 240.184C260.375 242.472 261.596 244.754 262.717 247.023C263.115 247.825 263.48 248.628 263.845 249.431C263.506 248.96 263.221 248.568 263.181 248.515C261.642 246.817 257.682 244.436 255.347 245.484C254.964 245.67 254.624 245.934 254.35 246.259C254.076 246.585 253.873 246.965 253.755 247.374C253.636 247.783 253.605 248.212 253.664 248.634C253.722 249.056 253.869 249.46 254.094 249.822C254.996 251.388 257.099 252.124 258.797 252.336C260.495 252.548 263.606 251.673 264.681 251.328C265.025 252.164 265.377 252.993 265.682 253.815C265.875 254.386 266.1 254.917 266.259 255.494C266.419 256.071 266.604 256.628 266.77 257.192C267.055 258.28 267.354 259.401 267.606 260.469C267.792 261.212 267.951 261.921 268.11 262.638C267.725 261.842 266.936 260.283 266.856 260.164C265.596 258.253 262.04 255.301 259.56 255.984C259.153 256.109 258.777 256.318 258.456 256.598C258.135 256.878 257.877 257.222 257.698 257.608C257.519 257.994 257.424 258.413 257.417 258.839C257.411 259.264 257.495 259.686 257.662 260.077C258.326 261.762 260.316 262.817 261.928 263.281C263.739 263.792 267.712 263.208 268.21 263.129C268.475 264.316 268.72 265.47 268.933 266.565C269.53 269.576 269.954 272.203 270.259 274.273H271.971C271.613 272.15 271.115 269.411 270.418 266.253C270.153 265.046 269.848 263.766 269.523 262.452C270.712 261.947 271.87 261.373 272.992 260.734C274.319 262.127 277.729 263.719 278.166 263.918C277.735 265.052 277.304 266.154 276.879 267.182C275.725 269.994 274.644 272.389 273.762 274.273H275.606C276.395 272.469 277.317 270.293 278.259 267.746C278.71 266.591 279.161 265.358 279.586 264.077C280.07 264.17 284.03 264.887 285.861 264.436C287.52 264.024 289.516 263.036 290.226 261.378C290.408 260.992 290.506 260.573 290.515 260.147C290.523 259.721 290.442 259.298 290.276 258.905C290.11 258.513 289.863 258.16 289.552 257.869C289.24 257.578 288.871 257.357 288.468 257.218C286.02 256.455 282.372 259.295 281.052 261.159C280.972 261.271 280.263 262.565 279.831 263.381C280.01 262.863 280.196 262.359 280.375 261.815C280.74 260.754 281.072 259.679 281.437 258.499C281.596 257.935 281.748 257.371 281.908 256.794C282.067 256.217 282.186 255.606 282.326 255.009C282.631 253.616 282.863 252.19 283.075 250.744C284.004 251.062 287.334 252.144 289.045 251.991C290.757 251.839 292.873 251.162 293.828 249.623C294.065 249.269 294.224 248.87 294.296 248.45C294.368 248.031 294.351 247.601 294.246 247.189C294.141 246.776 293.95 246.391 293.686 246.057C293.422 245.723 293.091 245.449 292.714 245.252C290.412 244.124 286.379 246.373 284.793 248.024C284.694 248.124 283.685 249.437 283.148 250.167C283.268 249.298 283.387 248.429 283.48 247.547C283.739 245.006 283.924 242.419 284.143 239.839C284.203 239.049 284.269 238.26 284.336 237.47C284.667 237.59 288.594 238.963 290.511 238.797C292.216 238.645 294.339 237.975 295.294 236.436C295.532 236.083 295.693 235.683 295.766 235.264C295.839 234.845 295.822 234.415 295.718 234.002C295.613 233.59 295.423 233.204 295.159 232.87C294.895 232.536 294.563 232.261 294.186 232.064C291.884 230.937 287.845 233.185 286.259 234.83C286.14 234.956 284.694 236.82 284.349 237.344C284.495 235.606 284.654 233.882 284.886 232.184C285.181 229.893 285.624 227.624 286.213 225.391C286.365 225.444 290.465 226.89 292.422 226.718C294.127 226.565 296.249 225.895 297.204 224.356C297.442 224.003 297.603 223.604 297.676 223.185C297.749 222.765 297.733 222.335 297.628 221.923C297.524 221.51 297.333 221.124 297.069 220.79C296.805 220.456 296.474 220.182 296.097 219.985C293.795 218.857 289.755 221.106 288.17 222.751C288.064 222.864 286.962 224.296 286.452 224.993L286.326 224.933C286.976 222.7 287.829 220.531 288.873 218.452C289.437 217.298 290.034 216.223 290.637 215.202C291.374 215.547 294.75 217.099 296.534 217.132C298.319 217.165 300.428 216.734 301.543 215.308C301.818 214.983 302.021 214.603 302.139 214.194C302.257 213.785 302.288 213.355 302.229 212.933C302.17 212.512 302.023 212.107 301.798 211.746C301.572 211.384 301.273 211.075 300.919 210.837C298.757 209.471 294.498 211.262 292.74 212.728C292.647 212.807 291.758 213.723 291.128 214.399C291.407 213.935 291.692 213.457 291.964 213.026C293.005 211.388 294.054 209.955 294.995 208.688C295.539 207.978 296.044 207.361 296.521 206.751C297.417 206.751 301.039 206.532 302.611 205.756C304.183 204.98 305.881 203.6 306.219 201.822C306.312 201.407 306.317 200.977 306.233 200.56C306.149 200.143 305.978 199.749 305.732 199.402C305.485 199.056 305.168 198.765 304.802 198.549C304.436 198.332 304.028 198.196 303.606 198.147C301.052 197.922 298.1 201.464 297.211 203.587C297.138 203.772 296.262 206.758 296.309 206.758H296.362C295.898 207.315 295.394 207.918 294.863 208.588C293.894 209.835 292.806 211.242 291.732 212.867C290.552 214.601 289.473 216.402 288.501 218.26C287.406 220.338 286.496 222.509 285.782 224.747V224.827C285.782 224.078 285.702 221.975 285.675 221.816C285.337 219.553 283.347 215.381 280.82 214.97C280.398 214.912 279.968 214.943 279.559 215.063C279.15 215.182 278.771 215.387 278.447 215.663C278.122 215.939 277.86 216.281 277.677 216.666C277.494 217.05 277.394 217.469 277.384 217.895C277.271 219.699 278.617 221.477 279.911 222.592C281.377 223.839 285.397 225 285.715 225.092C285.046 227.388 284.531 229.726 284.176 232.091C283.957 233.464 283.785 234.857 283.626 236.257C283.626 235.593 283.579 235.023 283.566 234.93C283.221 232.668 281.231 228.495 278.704 228.084C278.282 228.026 277.852 228.058 277.443 228.177C277.034 228.297 276.655 228.501 276.331 228.778C276.006 229.054 275.744 229.395 275.561 229.78C275.377 230.165 275.278 230.584 275.268 231.009C275.155 232.814 276.501 234.592 277.802 235.706C279.102 236.82 282.525 237.888 283.427 238.154C283.374 238.691 283.314 239.228 283.261 239.766C283.002 242.346 282.763 244.92 282.452 247.434C282.339 248.323 282.2 249.192 282.06 250.087C282.06 249.51 282.014 249.026 282.007 248.953C281.662 246.691 279.672 242.519 277.145 242.107C276.723 242.049 276.293 242.081 275.884 242.201C275.475 242.32 275.096 242.525 274.772 242.801C274.447 243.077 274.185 243.418 274.002 243.803C273.819 244.188 273.719 244.607 273.709 245.033C273.596 246.837 274.943 248.615 276.243 249.722C277.543 250.83 280.627 251.805 281.702 252.13C281.536 253.013 281.37 253.902 281.165 254.784C281.012 255.361 280.906 255.931 280.72 256.502C280.535 257.072 280.382 257.636 280.216 258.2C279.851 259.261 279.486 260.363 279.102 261.397C278.843 262.114 278.584 262.797 278.326 263.48C278.445 262.598 278.644 260.867 278.644 260.721C278.574 258.71 277.99 256.75 276.946 255.029C276.948 254.807 276.93 254.585 276.893 254.366C276.831 253.945 276.681 253.541 276.453 253.182C276.225 252.822 275.924 252.515 275.569 252.279C275.214 252.044 274.814 251.886 274.394 251.816C273.974 251.746 273.544 251.765 273.132 251.872C270.664 252.582 269.185 256.96 269.118 259.248C269.118 259.381 269.231 260.853 269.324 261.776C269.185 261.245 269.059 260.721 268.913 260.17C268.634 259.082 268.316 258.001 267.984 256.853C267.805 256.296 267.619 255.739 267.433 255.169C267.248 254.598 267.016 254.028 266.77 253.451C266.253 252.124 265.662 250.797 265.039 249.47C265.994 249.218 269.364 248.283 270.704 247.208C272.044 246.134 273.443 244.409 273.39 242.605C273.393 242.181 273.307 241.761 273.138 241.373C272.968 240.984 272.719 240.636 272.407 240.349C272.094 240.063 271.725 239.845 271.323 239.711C270.921 239.576 270.496 239.527 270.074 239.567C267.526 239.898 265.43 243.998 264.986 246.253C264.986 246.393 264.846 248.038 264.8 248.946C264.422 248.157 264.044 247.368 263.632 246.578C262.445 244.31 261.171 242.054 259.918 239.792C259.526 239.129 259.155 238.406 258.777 237.716C259.115 237.63 263.148 236.601 264.647 235.401C265.974 234.333 267.387 232.602 267.301 230.791C267.303 230.367 267.216 229.948 267.046 229.561C266.876 229.173 266.627 228.825 266.315 228.539C266.002 228.254 265.633 228.037 265.232 227.903C264.831 227.768 264.405 227.719 263.984 227.759C261.443 228.084 259.341 232.19 258.903 234.439C258.903 234.611 258.71 236.98 258.697 237.59C257.861 236.058 257.045 234.532 256.302 232.986C255.28 230.912 254.394 228.774 253.649 226.585C253.808 226.545 258.027 225.49 259.56 224.263C260.886 223.195 262.299 221.464 262.246 219.653C262.249 219.229 262.163 218.809 261.993 218.421C261.824 218.032 261.575 217.684 261.262 217.397C260.95 217.111 260.581 216.894 260.179 216.759C259.777 216.624 259.351 216.575 258.929 216.615C256.382 216.947 254.286 221.053 253.848 223.301C253.815 223.447 253.689 225.258 253.649 226.121H253.503C252.823 223.896 252.339 221.617 252.057 219.308C251.891 218.041 251.798 216.814 251.739 215.626C252.541 215.507 256.216 214.963 257.709 213.988C259.201 213.013 260.734 211.5 260.88 209.703C260.929 209.28 260.889 208.852 260.762 208.446C260.634 208.039 260.423 207.665 260.142 207.345C259.86 207.026 259.514 206.77 259.127 206.593C258.74 206.417 258.32 206.323 257.895 206.32C255.334 206.366 252.773 210.214 252.11 212.403C252.077 212.522 251.845 213.776 251.692 214.685C251.692 214.147 251.639 213.597 251.633 213.079C251.593 211.142 251.679 209.364 251.765 207.772C251.825 206.877 251.891 206.068 251.964 205.318C252.701 204.787 255.619 202.665 256.495 201.126C257.37 199.587 258.04 197.524 257.337 195.859C257.188 195.46 256.955 195.098 256.656 194.795C256.357 194.492 255.997 194.256 255.6 194.102C255.203 193.948 254.778 193.879 254.352 193.901C253.927 193.922 253.511 194.034 253.132 194.227C250.876 195.454 250.379 200.044 250.803 202.293C250.836 202.492 251.759 205.464 251.798 205.437H251.845C251.759 206.161 251.672 206.943 251.599 207.792C251.48 209.364 251.354 211.142 251.347 213.099C251.319 215.195 251.415 217.29 251.633 219.374C251.871 221.713 252.315 224.026 252.959 226.286V226.366C252.548 225.743 251.321 224.031 251.215 223.912C249.682 222.214 245.722 219.832 243.38 220.88C242.997 221.066 242.658 221.33 242.383 221.656C242.109 221.982 241.906 222.361 241.788 222.77C241.67 223.179 241.639 223.609 241.697 224.03C241.755 224.452 241.902 224.857 242.127 225.218C243.069 226.738 245.172 227.48 246.89 227.686Z" fill="#B1B1B1"/>
<path opacity="0.3" d="M245.039 214.698C246.896 215.461 251.387 215.268 251.394 215.262C251.4 215.255 250.366 212.343 250.273 212.164C249.244 210.121 246.054 206.777 243.52 207.175C243.101 207.252 242.704 207.417 242.354 207.658C242.003 207.899 241.707 208.211 241.486 208.574C241.264 208.937 241.122 209.343 241.068 209.765C241.013 210.187 241.049 210.616 241.172 211.023C241.629 212.774 243.46 214.048 245.039 214.698Z" fill="#B1B1B1"/>
<path opacity="0.3" d="M290.544 214.731C290.584 214.731 291.3 211.726 291.32 211.527C291.592 209.258 290.77 204.708 288.441 203.64C288.049 203.473 287.627 203.392 287.201 203.4C286.775 203.408 286.356 203.505 285.97 203.686C285.585 203.867 285.242 204.127 284.964 204.449C284.685 204.772 284.478 205.149 284.355 205.557C283.771 207.268 284.601 209.338 285.556 210.751C286.69 212.409 290.544 214.731 290.544 214.731Z" fill="#B1B1B1"/>
<path opacity="0.3" d="M246.89 227.686C248.807 227.925 252.793 226.678 253.112 226.578C253.818 228.863 254.678 231.097 255.686 233.265C256.263 234.532 256.886 235.786 257.53 237.039C257.152 236.509 256.807 236.044 256.754 235.978C255.221 234.28 251.261 231.898 248.919 232.953C248.537 233.139 248.198 233.403 247.924 233.728C247.651 234.053 247.449 234.433 247.331 234.841C247.213 235.25 247.183 235.678 247.242 236.099C247.301 236.52 247.447 236.924 247.672 237.285C248.574 238.857 250.677 239.593 252.369 239.805C254.06 240.018 257.516 239.023 258.419 238.744C258.664 239.228 258.909 239.706 259.162 240.184C260.375 242.472 261.596 244.754 262.717 247.023C263.115 247.825 263.48 248.628 263.845 249.431C263.506 248.96 263.221 248.568 263.181 248.515C261.642 246.817 257.682 244.436 255.347 245.484C254.964 245.67 254.624 245.934 254.35 246.259C254.076 246.585 253.873 246.965 253.755 247.374C253.636 247.783 253.605 248.212 253.664 248.634C253.722 249.056 253.869 249.46 254.094 249.822C254.996 251.388 257.099 252.124 258.797 252.336C260.495 252.548 263.606 251.673 264.681 251.328C265.025 252.164 265.377 252.993 265.682 253.815C265.875 254.386 266.1 254.917 266.259 255.494C266.419 256.071 266.604 256.628 266.77 257.192C267.055 258.28 267.354 259.401 267.606 260.469C267.792 261.212 267.951 261.921 268.11 262.638C267.725 261.842 266.936 260.283 266.856 260.164C265.596 258.253 262.04 255.301 259.56 255.984C259.153 256.109 258.777 256.318 258.456 256.598C258.135 256.878 257.877 257.222 257.698 257.608C257.519 257.994 257.424 258.413 257.417 258.839C257.411 259.264 257.495 259.686 257.662 260.077C258.326 261.762 260.316 262.817 261.928 263.281C263.739 263.792 267.712 263.208 268.21 263.129C268.475 264.316 268.72 265.47 268.933 266.565C269.53 269.576 269.954 272.203 270.259 274.273H271.971C271.613 272.15 271.115 269.411 270.418 266.253C270.153 265.046 269.848 263.766 269.523 262.452C270.712 261.947 271.87 261.373 272.992 260.734C274.319 262.127 277.729 263.719 278.166 263.918C277.735 265.052 277.304 266.154 276.879 267.182C275.725 269.994 274.644 272.389 273.762 274.273H275.606C276.395 272.469 277.317 270.293 278.259 267.746C278.71 266.591 279.161 265.358 279.586 264.077C280.07 264.17 284.03 264.887 285.861 264.436C287.52 264.024 289.516 263.036 290.226 261.378C290.408 260.992 290.506 260.573 290.515 260.147C290.523 259.721 290.442 259.298 290.276 258.905C290.11 258.513 289.863 258.16 289.552 257.869C289.24 257.578 288.871 257.357 288.468 257.218C286.02 256.455 282.372 259.295 281.052 261.159C280.972 261.271 280.263 262.565 279.831 263.381C280.01 262.863 280.196 262.359 280.375 261.815C280.74 260.754 281.072 259.679 281.437 258.499C281.596 257.935 281.748 257.371 281.908 256.794C282.067 256.217 282.186 255.606 282.326 255.009C282.631 253.616 282.863 252.19 283.075 250.744C284.004 251.062 287.334 252.144 289.045 251.991C290.757 251.839 292.873 251.162 293.828 249.623C294.065 249.269 294.224 248.87 294.296 248.45C294.368 248.031 294.351 247.601 294.246 247.189C294.141 246.776 293.95 246.391 293.686 246.057C293.422 245.723 293.091 245.449 292.714 245.252C290.412 244.124 286.379 246.373 284.793 248.024C284.694 248.124 283.685 249.437 283.148 250.167C283.268 249.298 283.387 248.429 283.48 247.547C283.739 245.006 283.924 242.419 284.143 239.839C284.203 239.049 284.269 238.26 284.336 237.47C284.667 237.59 288.594 238.963 290.511 238.797C292.216 238.645 294.339 237.975 295.294 236.436C295.532 236.083 295.693 235.683 295.766 235.264C295.839 234.845 295.822 234.415 295.718 234.002C295.613 233.59 295.423 233.204 295.159 232.87C294.895 232.536 294.563 232.261 294.186 232.064C291.884 230.937 287.845 233.185 286.259 234.83C286.14 234.956 284.694 236.82 284.349 237.344C284.495 235.606 284.654 233.882 284.886 232.184C285.181 229.893 285.624 227.624 286.213 225.391C286.365 225.444 290.465 226.89 292.422 226.718C294.127 226.565 296.249 225.895 297.204 224.356C297.442 224.003 297.603 223.604 297.676 223.185C297.749 222.765 297.733 222.335 297.628 221.923C297.524 221.51 297.333 221.124 297.069 220.79C296.805 220.456 296.474 220.182 296.097 219.985C293.795 218.857 289.755 221.106 288.17 222.751C288.064 222.864 286.962 224.296 286.452 224.993L286.326 224.933C286.976 222.7 287.829 220.531 288.873 218.452C289.437 217.298 290.034 216.223 290.637 215.202C291.374 215.547 294.75 217.099 296.534 217.132C298.319 217.165 300.428 216.734 301.543 215.308C301.818 214.983 302.021 214.603 302.139 214.194C302.257 213.785 302.288 213.355 302.229 212.933C302.17 212.512 302.023 212.107 301.798 211.746C301.572 211.384 301.273 211.075 300.919 210.837C298.757 209.471 294.498 211.262 292.74 212.728C292.647 212.807 291.758 213.723 291.128 214.399C291.407 213.935 291.692 213.457 291.964 213.026C293.005 211.388 294.054 209.955 294.995 208.688C295.539 207.978 296.044 207.361 296.521 206.751C297.417 206.751 301.039 206.532 302.611 205.756C304.183 204.98 305.881 203.6 306.219 201.822C306.312 201.407 306.317 200.977 306.233 200.56C306.149 200.143 305.978 199.749 305.732 199.402C305.485 199.056 305.168 198.765 304.802 198.549C304.436 198.332 304.028 198.196 303.606 198.147C301.052 197.922 298.1 201.464 297.211 203.587C297.138 203.772 296.262 206.758 296.309 206.758H296.362C295.898 207.315 295.394 207.918 294.863 208.588C293.894 209.835 292.806 211.242 291.732 212.867C290.552 214.601 289.473 216.402 288.501 218.26C287.406 220.338 286.496 222.509 285.782 224.747V224.827C285.782 224.078 285.702 221.975 285.675 221.816C285.337 219.553 283.347 215.381 280.82 214.97C280.398 214.912 279.968 214.943 279.559 215.063C279.15 215.182 278.771 215.387 278.447 215.663C278.122 215.939 277.86 216.281 277.677 216.666C277.494 217.05 277.394 217.469 277.384 217.895C277.271 219.699 278.617 221.477 279.911 222.592C281.377 223.839 285.397 225 285.715 225.092C285.046 227.388 284.531 229.726 284.176 232.091C283.957 233.464 283.785 234.857 283.626 236.257C283.626 235.593 283.579 235.023 283.566 234.93C283.221 232.668 281.231 228.495 278.704 228.084C278.282 228.026 277.852 228.058 277.443 228.177C277.034 228.297 276.655 228.501 276.331 228.778C276.006 229.054 275.744 229.395 275.561 229.78C275.377 230.165 275.278 230.584 275.268 231.009C275.155 232.814 276.501 234.592 277.802 235.706C279.102 236.82 282.525 237.888 283.427 238.154C283.374 238.691 283.314 239.228 283.261 239.766C283.002 242.346 282.763 244.92 282.452 247.434C282.339 248.323 282.2 249.192 282.06 250.087C282.06 249.51 282.014 249.026 282.007 248.953C281.662 246.691 279.672 242.519 277.145 242.107C276.723 242.049 276.293 242.081 275.884 242.201C275.475 242.32 275.096 242.525 274.772 242.801C274.447 243.077 274.185 243.418 274.002 243.803C273.819 244.188 273.719 244.607 273.709 245.033C273.596 246.837 274.943 248.615 276.243 249.722C277.543 250.83 280.627 251.805 281.702 252.13C281.536 253.013 281.37 253.902 281.165 254.784C281.012 255.361 280.906 255.931 280.72 256.502C280.535 257.072 280.382 257.636 280.216 258.2C279.851 259.261 279.486 260.363 279.102 261.397C278.843 262.114 278.584 262.797 278.326 263.48C278.445 262.598 278.644 260.867 278.644 260.721C278.574 258.71 277.99 256.75 276.946 255.029C276.948 254.807 276.93 254.585 276.893 254.366C276.831 253.945 276.681 253.541 276.453 253.182C276.225 252.822 275.924 252.515 275.569 252.279C275.214 252.044 274.814 251.886 274.394 251.816C273.974 251.746 273.544 251.765 273.132 251.872C270.664 252.582 269.185 256.96 269.118 259.248C269.118 259.381 269.231 260.853 269.324 261.776C269.185 261.245 269.059 260.721 268.913 260.17C268.634 259.082 268.316 258.001 267.984 256.853C267.805 256.296 267.619 255.739 267.433 255.169C267.248 254.598 267.016 254.028 266.77 253.451C266.253 252.124 265.662 250.797 265.039 249.47C265.994 249.218 269.364 248.283 270.704 247.208C272.044 246.134 273.443 244.409 273.39 242.605C273.393 242.181 273.307 241.761 273.138 241.373C272.968 240.984 272.719 240.636 272.407 240.349C272.094 240.063 271.725 239.845 271.323 239.711C270.921 239.576 270.496 239.527 270.074 239.567C267.526 239.898 265.43 243.998 264.986 246.253C264.986 246.393 264.846 248.038 264.8 248.946C264.422 248.157 264.044 247.368 263.632 246.578C262.445 244.31 261.171 242.054 259.918 239.792C259.526 239.129 259.155 238.406 258.777 237.716C259.115 237.63 263.148 236.601 264.647 235.401C265.974 234.333 267.387 232.602 267.301 230.791C267.303 230.367 267.216 229.948 267.046 229.561C266.876 229.173 266.627 228.825 266.315 228.539C266.002 228.254 265.633 228.037 265.232 227.903C264.831 227.768 264.405 227.719 263.984 227.759C261.443 228.084 259.341 232.19 258.903 234.439C258.903 234.611 258.71 236.98 258.697 237.59C257.861 236.058 257.045 234.532 256.302 232.986C255.28 230.912 254.394 228.774 253.649 226.585C253.808 226.545 258.027 225.49 259.56 224.263C260.886 223.195 262.299 221.464 262.246 219.653C262.249 219.229 262.163 218.809 261.993 218.421C261.824 218.032 261.575 217.684 261.262 217.397C260.95 217.111 260.581 216.894 260.179 216.759C259.777 216.624 259.351 216.575 258.929 216.615C256.382 216.947 254.286 221.053 253.848 223.301C253.815 223.447 253.689 225.258 253.649 226.121H253.503C252.823 223.896 252.339 221.617 252.057 219.308C251.891 218.041 251.798 216.814 251.739 215.626C252.541 215.507 256.216 214.963 257.709 213.988C259.201 213.013 260.734 211.5 260.88 209.703C260.929 209.28 260.889 208.852 260.762 208.446C260.634 208.039 260.423 207.665 260.142 207.345C259.86 207.026 259.514 206.77 259.127 206.593C258.74 206.417 258.32 206.323 257.895 206.32C255.334 206.366 252.773 210.214 252.11 212.403C252.077 212.522 251.845 213.776 251.692 214.685C251.692 214.147 251.639 213.597 251.633 213.079C251.593 211.142 251.679 209.364 251.765 207.772C251.825 206.877 251.891 206.068 251.964 205.318C252.701 204.787 255.619 202.665 256.495 201.126C257.37 199.587 258.04 197.524 257.337 195.859C257.188 195.46 256.955 195.098 256.656 194.795C256.357 194.492 255.997 194.256 255.6 194.102C255.203 193.948 254.778 193.879 254.352 193.901C253.927 193.922 253.511 194.034 253.132 194.227C250.876 195.454 250.379 200.044 250.803 202.293C250.836 202.492 251.759 205.464 251.798 205.437H251.845C251.759 206.161 251.672 206.943 251.599 207.792C251.48 209.364 251.354 211.142 251.347 213.099C251.319 215.195 251.415 217.29 251.633 219.374C251.871 221.713 252.315 224.026 252.959 226.286V226.366C252.548 225.743 251.321 224.031 251.215 223.912C249.682 222.214 245.722 219.832 243.38 220.88C242.997 221.066 242.658 221.33 242.383 221.656C242.109 221.982 241.906 222.361 241.788 222.77C241.67 223.179 241.639 223.609 241.697 224.03C241.755 224.452 241.902 224.857 242.127 225.218C243.069 226.738 245.172 227.48 246.89 227.686Z" fill="#B1B1B1"/>
<path d="M171.322 15.3564H23.3499V268.7H171.322V15.3564Z" stroke="#B1B1B1" stroke-width="0.633213" stroke-linecap="round" stroke-linejoin="round"/>
<path d="M166.93 20.8291H27.7346V263.228H166.93V20.8291Z" stroke="#B1B1B1" stroke-width="0.633213" stroke-linecap="round" stroke-linejoin="round"/>
<path d="M164.497 96.2178H27.7344V101.757H164.497V96.2178Z" stroke="#B1B1B1" stroke-width="0.633213" stroke-linecap="round" stroke-linejoin="round"/>
<path d="M98.8912 187.315V263.162H93.3456V187.315" stroke="#B1B1B1" stroke-width="0.633213" stroke-linecap="round" stroke-linejoin="round"/>
<path d="M93.3456 181.77V101.763" stroke="#B1B1B1" stroke-width="0.633213" stroke-linecap="round" stroke-linejoin="round"/>
<path d="M98.8912 181.77V101.763" stroke="#B1B1B1" stroke-width="0.633213" stroke-linecap="round" stroke-linejoin="round"/>
<path d="M93.3456 96.2182V20.7891H98.8912V96.2182" stroke="#B1B1B1" stroke-width="0.633213" stroke-linecap="round" stroke-linejoin="round"/>
<path d="M164.497 181.769H27.7344V187.308H164.497V181.769Z" stroke="#B1B1B1" stroke-width="0.633213" stroke-linecap="round" stroke-linejoin="round"/>
<path d="M160.721 181.77V101.763" stroke="#B1B1B1" stroke-width="0.633213" stroke-linecap="round" stroke-linejoin="round"/>
<path d="M160.722 96.218V20.8291H27.7346V96.218V101.764V181.769V187.315V263.228H160.722V187.315" stroke="#B1B1B1" stroke-width="0.633213" stroke-linecap="round" stroke-linejoin="round"/>
<path d="M156.715 32.4905L113.783 75.4157" stroke="#B1B1B1" stroke-width="0.633213" stroke-linecap="round" stroke-linejoin="round"/>
<path d="M142.181 58.0225L130.732 69.4718" stroke="#B1B1B1" stroke-width="0.633213" stroke-linecap="round" stroke-linejoin="round"/>
<path d="M127.654 73.4387L122.811 78.2812" stroke="#B1B1B1" stroke-width="0.633213" stroke-linecap="round" stroke-linejoin="round"/>
<path d="M62.487 136.396L42.235 156.655" stroke="#B1B1B1" stroke-width="0.633213" stroke-linecap="round" stroke-linejoin="round"/>
<path d="M87.5813 124.072L63.5881 148.065" stroke="#B1B1B1" stroke-width="0.633213" stroke-linecap="round" stroke-linejoin="round"/>
<path d="M81.8567 29.406L56.7623 54.5004" stroke="#B1B1B1" stroke-width="0.633213" stroke-linecap="round" stroke-linejoin="round"/>
<path d="M62.0491 72.1121L56.3245 77.8367" stroke="#B1B1B1" stroke-width="0.633213" stroke-linecap="round" stroke-linejoin="round"/>
<path d="M150.108 156.655L143.945 162.818" stroke="#B1B1B1" stroke-width="0.633213" stroke-linecap="round" stroke-linejoin="round"/>
<path d="M151.866 131.999L115.76 168.104" stroke="#B1B1B1" stroke-width="0.633213" stroke-linecap="round" stroke-linejoin="round"/>
<path d="M123.249 247.354L141.524 229.085" stroke="#B1B1B1" stroke-width="0.633213" stroke-linecap="round" stroke-linejoin="round"/>
<path d="M45.7575 226.22L36.9482 235.029" stroke="#B1B1B1" stroke-width="0.633213" stroke-linecap="round" stroke-linejoin="round"/>
<path d="M300.687 17.0745H210.426V131.555H300.687V17.0745Z" stroke="#B1B1B1" stroke-width="0.633213" stroke-linecap="round" stroke-linejoin="round"/>
<path d="M297.264 21.4194H213.849V127.217H297.264V21.4194Z" stroke="#B1B1B1" stroke-width="0.633213" stroke-linecap="round" stroke-linejoin="round"/>
<path d="M277.709 46.2285H233.411V102.407H277.709V46.2285Z" stroke="#B1B1B1" stroke-width="0.633213" stroke-linecap="round" stroke-linejoin="round"/>
<path d="M63.9265 247.056C64.5823 244.781 65.0591 242.459 65.3527 240.11C65.5092 238.94 65.5934 237.762 65.6047 236.581C65.6347 235.423 65.5637 234.264 65.3925 233.119L65.2399 232.276L65.0475 231.381L64.6363 229.59C64.3709 228.389 64.0989 227.188 63.8535 225.968C63.6081 224.747 63.3958 223.513 63.2698 222.253C63.1444 220.997 63.1023 219.734 63.1437 218.472C63.1437 218.296 63.2136 218.127 63.338 218.003C63.4624 217.878 63.6311 217.809 63.8071 217.809C63.983 217.809 64.1517 217.878 64.2761 218.003C64.4005 218.127 64.4704 218.296 64.4704 218.472C64.5556 220.868 64.9321 223.245 65.5915 225.55C65.9032 226.717 66.2548 227.891 66.5931 229.066L67.1105 230.83L67.3692 231.719L67.6081 232.681C67.8802 233.945 68.0422 235.23 68.0923 236.522C68.1686 237.794 68.1686 239.07 68.0923 240.342C67.9412 242.881 67.5863 245.403 67.0309 247.885C66.9272 248.283 66.6741 248.626 66.3241 248.842C65.9741 249.058 65.5543 249.131 65.1519 249.046C64.7495 248.96 64.3955 248.723 64.1636 248.383C63.9316 248.043 63.8396 247.627 63.9066 247.221C63.9036 247.188 63.9036 247.155 63.9066 247.122L63.9265 247.056Z" fill="#B1B1B1" stroke="#B1B1B1" stroke-width="0.633213" stroke-linecap="round" stroke-linejoin="round"/>
<path d="M65.0542 222.008C65.0542 222.008 65.0542 218.28 67.1238 216.21C69.1935 214.14 71.8601 213.663 73.618 213.464C75.482 213.258 84.1055 214.757 84.1055 214.757C82.4702 217.143 80.4532 219.243 78.1354 220.973C74.3742 223.666 65.0542 222.008 65.0542 222.008Z" fill="#B1B1B1" stroke="#B1B1B1" stroke-width="0.633213" stroke-linecap="round" stroke-linejoin="round"/>
<path d="M76.5168 216.734C77.4656 216.507 78.4269 216.337 79.3957 216.223" stroke="#B1B1B1" stroke-width="0.633213" stroke-linecap="round" stroke-linejoin="round"/>
<path d="M65.0542 222.008C68.05 219.892 71.3611 218.262 74.8651 217.178" stroke="#B1B1B1" stroke-width="0.633213" stroke-linecap="round" stroke-linejoin="round"/>
<path d="M63.1437 218.472C63.1437 218.472 60.8817 213.059 57.0741 211.487C53.2665 209.915 48.1521 213.716 48.1521 213.716C48.1521 213.716 50.3809 218.572 54.9779 219.228C57.7214 219.625 60.5197 219.365 63.1437 218.472Z" fill="#B1B1B1" stroke="#B1B1B1" stroke-width="0.633213" stroke-linecap="round" stroke-linejoin="round"/>
<path d="M63.1437 218.472C63.1437 218.472 58.2549 215.421 54.1885 214.764L63.1437 218.472Z" fill="#B1B1B1"/>
<path d="M63.1437 218.472C63.1437 218.472 58.2549 215.421 54.1885 214.764" stroke="#B1B1B1" stroke-width="0.633213" stroke-linecap="round" stroke-linejoin="round"/>
<path d="M87.3094 243.454H45.3395L50.1819 273.974H82.467L87.3094 243.454Z" fill="#B1B1B1" stroke="#B1B1B1" stroke-width="0.633213" stroke-linecap="round" stroke-linejoin="round"/>
<path d="M304.256 274.272H5.68488" stroke="#B1B1B1" stroke-width="0.633213" stroke-linecap="round" stroke-linejoin="round"/>
</g>
<defs>
<clipPath id="clip0_133_4502">
<rect width="308.222" height="276.395" fill="white"/>
</clipPath>
</defs>
</svg>
