<svg width="315" height="234" viewBox="0 0 315 234" fill="none" xmlns="http://www.w3.org/2000/svg">
<path d="M278.705 31.678C280.267 23.9413 275.26 16.404 267.524 14.8427C259.787 13.2815 252.25 18.2877 250.689 26.0243C249.127 33.7609 254.133 41.2983 261.87 42.8595C269.607 44.4208 277.144 39.4146 278.705 31.678Z" fill="#E6E6E6"/>
<path d="M40.3496 94.3723V103.739H42.2338V99.6752H53.7267V103.739H55.1104V99.6752H66.6034V103.739H69.532V81.6679H74.1291V72.3557H76.0483V81.6679H81.0249V103.739H84.4818V94.3723H95.9747V103.739H99.5068V76.442H105.253V103.739H107.718V76.442H113.464V103.739H115.911V94.3723H121.657V103.739H124.895V94.3723H136.388V103.739H140.231V81.6679H151.724V94.3723H157.475V103.739H159.359V99.6752H170.852V103.739H172.236V99.6752H183.728V103.739H186.658V81.6679H191.459V72.3557H193.378V81.6679H198.15V103.739H201.607V94.3723H213.1V103.739H216.632V76.442H222.378V103.739H224.843V76.442H230.589V103.739H233.036V94.3723H238.782V103.739H242.02V94.3723H253.513V103.739H257.356V81.6679H262.107V72.3557H264.026V81.6679H268.849V103.739V114.443H304.924V115.834H28.8573V115.138H28.8567V103.739V94.3723H40.3496Z" fill="white"/>
<path d="M127.729 94.9959C123.244 93.4821 120.936 88.1953 121.993 84.9987C122.776 82.6308 124.997 82.6386 125.435 80.2455C125.914 77.6264 123.477 76.3942 123.468 73.5258C123.459 70.7753 126.663 70.7112 127.238 67.2976C127.498 65.7475 127.051 65.0223 127.729 63.6918C128.253 62.6629 129.537 61.1031 130.843 61.2332C132.583 61.4061 132.476 64.3904 135.596 68.6088C137.676 71.4215 138.763 71.5005 138.874 73.0344C139.074 75.8037 135.628 76.9394 135.924 79.5902C136.143 81.5495 138.094 81.5417 139.038 83.8513C140.232 86.7721 138.89 91.1349 135.76 93.5216C135.447 93.7598 131.87 96.3938 127.729 94.9959Z" fill="#E6E6E6"/>
<path d="M130.604 115.98C130.523 115.98 130.457 115.914 130.457 115.834V67.5444C130.457 67.4635 130.523 67.3975 130.604 67.3975C130.685 67.3975 130.751 67.4635 130.751 67.5444V115.834C130.751 115.914 130.685 115.98 130.604 115.98Z" fill="#E6E6E6"/>
<path d="M130.604 80.4968C130.571 80.4968 130.538 80.4858 130.511 80.4638C130.448 80.4126 130.439 80.32 130.491 80.2566L134.833 74.9381C134.883 74.8753 134.976 74.8662 135.039 74.9174C135.102 74.9685 135.112 75.0611 135.06 75.1239L130.718 80.4424C130.689 80.478 130.647 80.4968 130.604 80.4968Z" fill="#E6E6E6"/>
<path d="M130.604 89.5557C130.557 89.5557 130.511 89.5331 130.483 89.491C130.437 89.4236 130.455 89.3324 130.522 89.287L136.951 84.9586C137.018 84.9126 137.11 84.9307 137.155 84.9981C137.2 85.0654 137.183 85.1567 137.116 85.202L130.687 89.5305C130.661 89.548 130.633 89.5557 130.604 89.5557Z" fill="#E6E6E6"/>
<path d="M130.604 87.3917C130.567 87.3917 130.531 87.3781 130.502 87.3503L126.422 83.4077C126.364 83.3514 126.362 83.2588 126.419 83.1999C126.475 83.1416 126.568 83.1403 126.627 83.1966L130.707 87.1392C130.765 87.1955 130.767 87.2881 130.71 87.3471C130.681 87.3768 130.643 87.3917 130.604 87.3917Z" fill="#E6E6E6"/>
<path d="M130.604 76.1603C130.57 76.1603 130.536 76.1486 130.508 76.124L126.485 72.6205C126.424 72.5674 126.417 72.4741 126.471 72.4133C126.525 72.3524 126.616 72.3453 126.678 72.399L130.701 75.9026C130.762 75.9557 130.769 76.0489 130.715 76.1098C130.686 76.1434 130.645 76.1603 130.604 76.1603Z" fill="#E6E6E6"/>
<path d="M280.822 94.9959C276.337 93.4821 274.03 88.1953 275.086 84.9987C275.869 82.6308 278.09 82.6386 278.528 80.2455C279.008 77.6264 276.57 76.3942 276.561 73.5258C276.553 70.7753 279.757 70.7112 280.331 67.2976C280.592 65.7475 280.145 65.0223 280.822 63.6918C281.347 62.6629 282.63 61.1031 283.936 61.2332C285.676 61.4061 285.569 64.3904 288.689 68.6088C290.77 71.4215 291.857 71.5005 291.968 73.0344C292.167 75.8037 288.721 76.9394 289.017 79.5902C289.236 81.5495 291.187 81.5417 292.131 83.8513C293.325 86.7721 291.983 91.1349 288.853 93.5216C288.541 93.7598 284.963 96.3938 280.822 94.9959Z" fill="#E6E6E6"/>
<path d="M283.697 115.98C283.616 115.98 283.55 115.914 283.55 115.834V67.5444C283.55 67.4635 283.616 67.3975 283.697 67.3975C283.778 67.3975 283.844 67.4635 283.844 67.5444V115.834C283.844 115.914 283.778 115.98 283.697 115.98Z" fill="#E6E6E6"/>
<path d="M283.697 80.4968C283.664 80.4968 283.632 80.4858 283.604 80.4638C283.541 80.4126 283.532 80.32 283.583 80.2566L287.925 74.9381C287.975 74.8753 288.068 74.8662 288.131 74.9174C288.194 74.9685 288.204 75.0611 288.152 75.1239L283.811 80.4424C283.783 80.478 283.74 80.4968 283.697 80.4968Z" fill="#E6E6E6"/>
<path d="M283.697 89.5557C283.65 89.5557 283.603 89.5331 283.575 89.491C283.53 89.4236 283.548 89.3324 283.615 89.287L290.044 84.9586C290.111 84.9126 290.203 84.9307 290.248 84.9981C290.293 85.0654 290.276 85.1567 290.208 85.202L283.779 89.5305C283.754 89.548 283.726 89.5557 283.697 89.5557Z" fill="#E6E6E6"/>
<path d="M283.697 87.3917C283.66 87.3917 283.623 87.3781 283.595 87.3503L279.516 83.4077C279.457 83.3514 279.456 83.2588 279.512 83.1999C279.569 83.1416 279.662 83.1403 279.72 83.1966L283.799 87.1392C283.858 87.1955 283.859 87.2881 283.803 87.3471C283.774 87.3768 283.736 87.3917 283.697 87.3917Z" fill="#E6E6E6"/>
<path d="M283.697 76.1605C283.663 76.1605 283.629 76.1488 283.601 76.1242L279.579 72.6207C279.517 72.5676 279.511 72.4743 279.564 72.4135C279.617 72.3519 279.711 72.3461 279.771 72.3992L283.794 75.9028C283.855 75.9559 283.862 76.0491 283.808 76.11C283.779 76.1436 283.738 76.1605 283.697 76.1605Z" fill="#E6E6E6"/>
<path d="M211.583 94.9959C207.097 93.4821 204.79 88.1953 205.846 84.9987C206.629 82.6308 208.85 82.6386 209.289 80.2455C209.768 77.6264 207.331 76.3942 207.321 73.5258C207.313 70.7753 210.517 70.7112 211.091 67.2976C211.352 65.7475 210.905 65.0223 211.583 63.6918C212.107 62.6629 213.39 61.1031 214.696 61.2332C216.436 61.4061 216.329 64.3904 219.45 68.6088C221.53 71.4215 222.617 71.5005 222.728 73.0344C222.927 75.8037 219.481 76.9394 219.778 79.5902C219.997 81.5495 221.948 81.5417 222.892 83.8513C224.086 86.7721 222.743 91.1349 219.614 93.5216C219.301 93.7598 215.723 96.3938 211.583 94.9959Z" fill="#E6E6E6"/>
<path d="M214.458 115.98C214.377 115.98 214.311 115.914 214.311 115.834V67.5444C214.311 67.4635 214.377 67.3975 214.458 67.3975C214.539 67.3975 214.605 67.4635 214.605 67.5444V115.834C214.605 115.914 214.539 115.98 214.458 115.98Z" fill="#E6E6E6"/>
<path d="M214.458 80.4968C214.425 80.4968 214.393 80.4858 214.365 80.4638C214.302 80.4126 214.292 80.32 214.344 80.2566L218.686 74.9381C218.737 74.8753 218.828 74.8662 218.892 74.9174C218.955 74.9685 218.965 75.0611 218.913 75.1239L214.571 80.4424C214.543 80.478 214.5 80.4968 214.458 80.4968Z" fill="#E6E6E6"/>
<path d="M214.458 89.5557C214.411 89.5557 214.364 89.5331 214.336 89.491C214.291 89.4236 214.309 89.3324 214.376 89.287L220.805 84.9586C220.873 84.9126 220.964 84.9307 221.009 84.9981C221.054 85.0654 221.037 85.1567 220.969 85.202L214.54 89.5305C214.515 89.548 214.486 89.5557 214.458 89.5557Z" fill="#E6E6E6"/>
<path d="M214.458 87.3917C214.421 87.3917 214.385 87.3781 214.356 87.3503L210.276 83.4077C210.218 83.3514 210.216 83.2588 210.273 83.1999C210.329 83.1416 210.421 83.1403 210.48 83.1966L214.56 87.1392C214.619 87.1955 214.62 87.2881 214.563 87.3471C214.535 87.3768 214.496 87.3917 214.458 87.3917Z" fill="#E6E6E6"/>
<path d="M214.458 76.1605C214.424 76.1605 214.389 76.1488 214.362 76.1242L210.339 72.6207C210.278 72.5676 210.272 72.4743 210.325 72.4135C210.379 72.3519 210.473 72.3461 210.532 72.3992L214.555 75.9028C214.616 75.9559 214.623 76.0491 214.569 76.11C214.539 76.1436 214.499 76.1605 214.458 76.1605Z" fill="#E6E6E6"/>
<path d="M138.168 142.518V182.245H91.4248V142.518H138.168Z" fill="#F6F6F6" stroke="#1F1F1F" stroke-width="0.5"/>
<path d="M137.589 141.907H91.6071L114.785 126.281L137.589 141.907Z" fill="white" stroke="#1F1F1F" stroke-width="0.5"/>
<path d="M107.467 113.596V182.245H20.1001V113.596H107.467Z" fill="#F6F6F6" stroke="#1F1F1F" stroke-width="0.5"/>
<path d="M107.466 112.186V116.726H20.1149V112.186H107.466Z" fill="white" stroke="#1F1F1F" stroke-width="0.5"/>
<path d="M77.0564 153.018V182.245H49.2986V153.018H77.0564Z" fill="#F6F6F6" stroke="#1F1F1F" stroke-width="0.5"/>
<path d="M63.1774 152.723C63.2018 152.723 63.2213 152.742 63.2213 152.767V182.494C63.2207 182.52 63.2006 182.538 63.1774 182.538C63.1529 182.538 63.1334 182.519 63.1334 182.494V152.767C63.1334 152.742 63.1529 152.723 63.1774 152.723Z" fill="#F6F6F6" stroke="#1F1F1F" stroke-width="0.5"/>
<path d="M66.0225 168.438H68.7568C68.7813 168.438 68.8008 168.457 68.8008 168.481C68.8008 168.506 68.7813 168.525 68.7568 168.525H66.0225C65.998 168.525 65.9785 168.506 65.9785 168.481C65.9785 168.457 65.998 168.438 66.0225 168.438Z" fill="#F6F6F6" stroke="#1F1F1F" stroke-width="0.5"/>
<path d="M57.5955 168.438H60.3298C60.342 168.438 60.3532 168.442 60.3611 168.45L60.3738 168.481C60.3732 168.507 60.3528 168.525 60.3298 168.525H57.5955C57.571 168.525 57.5515 168.506 57.5515 168.481C57.5515 168.457 57.571 168.438 57.5955 168.438Z" fill="#F6F6F6" stroke="#1F1F1F" stroke-width="0.5"/>
<path d="M19.1294 111.936H107.677L63.7634 81.8474L19.1294 111.936Z" fill="#F6F6F6"/>
<path d="M110.393 110.727L108.083 114.098L63.9082 83.8303L63.7686 83.7346L63.6279 83.8293L18.7109 114.109L16.4258 110.72L63.7861 78.7913L110.393 110.727Z" fill="#F6F6F6" stroke="#1F1F1F" stroke-width="0.5"/>
<path d="M77.3058 130.895H72.8912V138.352H77.3058V130.895Z" fill="white"/>
<path d="M58.465 130.895H54.0504V138.352H58.465V130.895Z" fill="white"/>
<path d="M90.4938 130.895H86.0792V138.352H90.4938V130.895Z" fill="white"/>
<path d="M53.4632 130.895H49.0486V138.352H53.4632V130.895Z" fill="white"/>
<path d="M39.732 130.895H35.3174V138.352H39.732V130.895Z" fill="white"/>
<path d="M95.4961 138.939H91.0815V146.934H95.4961V138.939Z" fill="white"/>
<path d="M72.3039 130.895H67.8893V138.352H72.3039V130.895Z" fill="white"/>
<path d="M90.4938 138.939H86.0792V146.934H90.4938V138.939Z" fill="white"/>
<path d="M114.801 152.995H110.386V160.721H114.801V152.995Z" fill="white"/>
<path d="M95.4961 130.895H91.0815V138.352H95.4961V130.895Z" fill="white"/>
<path d="M119.803 152.995H115.388V160.721H119.803V152.995Z" fill="white"/>
<path d="M95.7551 152.995H91.0815V160.721H95.7551V152.995Z" fill="white"/>
<path d="M90.4937 152.995H86.3381V160.721H90.4937V152.995Z" fill="white"/>
<path d="M39.732 138.939H35.3174V146.934H39.732V138.939Z" fill="white"/>
<path d="M95.7551 161.309H91.0815V169.034H95.7551V161.309Z" fill="white"/>
<path d="M72.3039 138.939H67.8893V146.934H72.3039V138.939Z" fill="white"/>
<path d="M53.4632 138.939H49.0486V146.934H53.4632V138.939Z" fill="white"/>
<path d="M58.465 138.939H54.0504V146.934H58.465V138.939Z" fill="white"/>
<path d="M77.3058 138.939H72.8912V146.934H77.3058V138.939Z" fill="white"/>
<path d="M119.803 161.309H115.388V169.034H119.803V161.309Z" fill="white"/>
<path d="M114.801 161.309H110.386V169.034H114.801V161.309Z" fill="white"/>
<path d="M90.4937 161.309H86.3381V169.034H90.4937V161.309Z" fill="white"/>
<path d="M34.73 152.995H30.5745V160.721H34.73V152.995Z" fill="white"/>
<path d="M34.73 130.895H30.3154V138.352H34.73V130.895Z" fill="white"/>
<path d="M39.9909 152.995H35.3174V160.721H39.9909V152.995Z" fill="white"/>
<path d="M34.73 138.939H30.3154V146.934H34.73V138.939Z" fill="white"/>
<path d="M35.3174 138.352H34.7301V138.939H35.3174V138.352Z" fill="white"/>
<path d="M39.9909 161.309H35.3174V169.034H39.9909V161.309Z" fill="white"/>
<path d="M34.73 161.309H30.5745V169.034H34.73V161.309Z" fill="white"/>
<path d="M62.7629 99.2578V104.527C59.9697 104.269 57.7516 102.051 57.4934 99.2578H62.7629Z" fill="white" stroke="#1F1F1F" stroke-width="0.5"/>
<path d="M69.1195 99.2578C68.8613 102.051 66.6431 104.269 63.85 104.527V99.2578H69.1195Z" fill="white" stroke="#1F1F1F" stroke-width="0.5"/>
<path d="M62.7631 98.1707H57.4935C57.7516 95.3773 59.9697 93.1582 62.7631 92.9001V98.1707Z" fill="white" stroke="#1F1F1F" stroke-width="0.5"/>
<path d="M63.85 92.9001C66.6427 93.1583 68.8614 95.3774 69.1195 98.1707H63.85V92.9001Z" fill="white" stroke="#1F1F1F" stroke-width="0.5"/>
<path d="M217.94 182.244H154.366V121.116L217.94 101.316V182.244Z" fill="#F6F6F6" stroke="#1F1F1F" stroke-width="0.5"/>
<path d="M204.159 153.017V182.245H189.924V153.017H204.159Z" fill="#F6F6F6" stroke="#1F1F1F" stroke-width="0.5"/>
<path d="M198.222 168.437H200.955C200.979 168.437 200.999 168.457 200.999 168.481C200.998 168.506 200.978 168.525 200.955 168.525H198.222C198.197 168.525 198.178 168.506 198.178 168.481C198.178 168.457 198.197 168.437 198.222 168.437Z" fill="#F6F6F6" stroke="#1F1F1F" stroke-width="0.5"/>
<path d="M223.908 96.171L225.414 100.926L141.012 127.664L139.505 122.909L223.908 96.171Z" fill="#F6F6F6" stroke="#1F1F1F" stroke-width="0.5"/>
<path d="M172.633 138.554H165.766V146.279H172.633V138.554Z" fill="white"/>
<path d="M180.481 152.341H173.614V160.066H180.481V152.341Z" fill="white"/>
<path d="M173.026 152.341H166.16V160.066H173.026V152.341Z" fill="white"/>
<path d="M180.086 138.554H173.22V146.279H180.086V138.554Z" fill="white"/>
<path d="M203.964 130.241H197.335V137.967H203.964V130.241Z" fill="white"/>
<path d="M196.748 130.241H189.644V137.967H196.748V130.241Z" fill="white"/>
<path d="M180.481 160.653H173.614V168.379H180.481V160.653Z" fill="white"/>
<path d="M196.748 138.554H189.644V146.279H196.748V138.554Z" fill="white"/>
<path d="M203.964 138.554H197.335V146.279H203.964V138.554Z" fill="white"/>
<path d="M172.633 130.241H165.766V137.967H172.633V130.241Z" fill="white"/>
<path d="M173.026 160.653H166.16V168.379H173.026V160.653Z" fill="white"/>
<path d="M180.086 130.241H173.22V137.967H180.086V130.241Z" fill="white"/>
<path d="M259.47 152.776V182.244H233.324V152.776L246.397 142.817L259.47 152.776Z" fill="#F6F6F6" stroke="#1F1F1F" stroke-width="0.5"/>
<path d="M264.363 152.506L262.19 155.356L246.549 143.442L246.397 143.326L246.246 143.442L230.606 155.357L228.432 152.506L246.397 138.819L264.363 152.506Z" fill="#F6F6F6" stroke="#1F1F1F" stroke-width="0.5"/>
<path d="M297.18 136.753V182.245H256.727V136.753L276.953 121.344L297.18 136.753Z" fill="#F6F6F6" stroke="#1F1F1F" stroke-width="0.5"/>
<path d="M304.755 136.377L301.251 140.973L277.104 122.579L276.952 122.463L276.801 122.579L252.656 140.972L249.152 136.376L276.952 115.199L304.755 136.377Z" fill="#F6F6F6" stroke="#1F1F1F" stroke-width="0.5"/>
<path d="M284.071 153.018V182.245H269.836V153.018H284.071Z" fill="#F6F6F6" stroke="#1F1F1F" stroke-width="0.5"/>
<path d="M278.133 168.438H280.867C280.892 168.438 280.911 168.457 280.911 168.481C280.911 168.506 280.892 168.525 280.867 168.525H278.133C278.108 168.525 278.089 168.506 278.089 168.481C278.089 168.457 278.108 168.438 278.133 168.438Z" fill="#F6F6F6" stroke="#1F1F1F" stroke-width="0.5"/>
<path d="M252.717 155.186H246.692V161.969H252.717V155.186Z" fill="white"/>
<path d="M246.104 155.186H240.079V161.969H246.104V155.186Z" fill="white"/>
<path d="M276.66 139.624V134.394C273.836 134.542 271.578 136.801 271.429 139.624H276.66Z" fill="white"/>
<path d="M277.248 139.624H282.478C282.33 136.801 280.072 134.543 277.248 134.394V139.624Z" fill="white"/>
<path d="M276.66 140.211H271.429C271.577 143.036 273.836 145.294 276.66 145.442V140.211Z" fill="white"/>
<path d="M277.248 140.211V145.442C280.072 145.293 282.33 143.034 282.478 140.211H277.248Z" fill="white"/>
<path d="M246.104 162.557H240.079V169.34H246.104V162.557Z" fill="white"/>
<path d="M252.717 162.557H246.692V169.34H252.717V162.557Z" fill="white"/>
<path d="M314.023 182.56H0V183H314.023V182.56Z" fill="#F6F6F6"/>
<path d="M175.59 38.5277C177.341 32.3331 180.837 32.17 182.544 33.52C183.93 34.6162 184.389 36.9737 186.874 37.5364C189.09 38.0382 190.26 35.6107 192.319 36.2265C194.473 36.8695 194.54 39.925 196.361 40.046C197.692 40.1347 198.129 38.5329 199.672 38.6203C201.025 38.6967 201.05 39.9489 202.662 40.5873C205.187 41.5877 207.566 39.4834 208.677 40.6404C208.993 40.9694 209.197 41.5527 209.054 42.0021C208.526 43.6539 203.421 43.1669 195.461 42.9494C188.459 42.7577 184.324 42.6444 179.259 42.9028C171.976 43.2744 167.972 44.1492 167.519 42.8956C167.221 42.0714 168.505 40.4617 169.871 40.1995C171.329 39.9198 172.138 41.3158 173.841 41.1079C174.762 40.9959 175.267 39.6718 175.59 38.5277Z" fill="white"/>
<path d="M196.747 5.52333C198.479 -0.503493 201.886 -0.646588 203.543 0.675585C204.888 1.74977 205.325 4.04835 207.744 4.60714C209.9 5.1057 211.05 2.74625 213.054 3.35489C215.148 3.99073 215.201 6.96723 216.974 7.09414C218.27 7.18673 218.703 5.62758 220.206 5.71952C221.523 5.79981 221.543 7.01968 223.111 7.64904C225.566 8.63516 227.893 6.59493 228.97 7.72739C229.276 8.04919 229.471 8.61833 229.33 9.05539C228.808 10.6625 223.838 10.1652 216.085 9.91784C209.265 9.70028 205.236 9.57144 200.301 9.8013C193.204 10.1309 189.301 10.9655 188.864 9.74302C188.577 8.93884 189.836 7.37645 191.168 7.12716C192.589 6.86104 193.371 8.22401 195.032 8.02977C195.93 7.92358 196.427 6.63637 196.747 5.52333Z" fill="white"/>
<path d="M116.592 5.45405C117.963 0.686588 120.658 0.573279 121.968 1.61897C123.033 2.46848 123.378 4.28662 125.291 4.72886C126.997 5.12318 127.907 3.25712 129.491 3.7382C131.148 4.2413 131.19 6.59557 132.592 6.69593C133.618 6.7691 133.96 5.53563 135.149 5.6088C136.191 5.6729 136.206 6.63701 137.446 7.13493C139.389 7.91451 141.23 6.30097 142.081 7.19709C142.323 7.45155 142.478 7.90156 142.366 8.24732C141.954 9.51834 138.021 9.12531 131.889 8.92977C126.494 8.75754 123.308 8.65588 119.403 8.83718C113.79 9.09812 110.702 9.75791 110.357 8.79056C110.13 8.15473 111.125 6.91867 112.179 6.72119C113.303 6.51075 113.922 7.58882 115.235 7.43536C115.946 7.35313 116.339 6.33463 116.592 5.45405Z" fill="white"/>
<path d="M71.1998 225.665C71.1998 225.665 70.347 227.193 69.9167 227.141C69.9167 227.141 70.3005 228.085 69.9081 228.681C69.5158 229.276 68.6428 230.249 67.9962 230.055C67.9962 230.055 68.1009 231.304 67.4713 231.615C66.841 231.925 65.6842 231.771 63.5529 231.145C61.4207 230.518 60.7617 229.993 60.7617 229.993C60.7617 229.993 62.6581 231.179 64.6368 232.251C66.6154 233.323 67.7016 233.672 68.5777 232.343C69.4538 231.015 69.132 230.798 70.6641 229.179C72.1961 227.559 73.3397 227.46 73.5723 225.408C73.5723 225.408 72.4039 226.304 71.1998 225.665Z" fill="#F0AF43"/>
<path d="M78.3597 202.649C79.6342 200.684 82.2613 200.124 84.2269 201.399C86.191 202.672 86.7525 205.3 85.4779 207.267L69.4916 231.916C68.2171 233.882 65.5903 234.441 63.6254 233.167L63.6244 233.166C63.4098 233.028 63.2125 232.873 63.0316 232.703C61.5589 231.326 61.2386 229.051 62.3734 227.3L78.3597 202.649Z" fill="#B1B1B1" stroke="#B1B1B1" stroke-width="0.3"/>
<path d="M76.5315 205.218L74.4746 208.389C74.4746 208.389 78.0287 210.396 83.8218 210.119C83.8218 210.119 79.2893 207.681 76.5315 205.218Z" fill="#C1DD21"/>
<path d="M82.6233 197.79C66.4091 182.627 65.5531 157.1 80.716 140.885C91.7139 129.125 108.161 125.452 122.556 130.103C106.931 121.979 87.1713 124.834 74.5678 138.311C59.4049 154.526 60.2608 180.053 76.475 195.216C80.9292 199.381 86.0874 202.329 91.5394 204.091C88.3668 202.441 85.3601 200.349 82.6233 197.79Z" fill="#E0E0E0"/>
<path d="M67.335 131.651C85.7829 111.924 116.731 110.887 136.458 129.335C156.032 147.639 157.206 178.248 139.203 197.993L138.774 198.458C120.326 218.185 89.3793 219.222 69.6514 200.774C49.9244 182.326 48.8871 151.379 67.335 131.651ZM129.97 136.273C114.1 121.432 89.1145 122.27 74.2734 138.141C59.4332 154.011 60.2706 178.996 76.1406 193.837C92.0106 208.677 116.996 207.84 131.837 191.97C146.677 176.1 145.84 151.115 129.97 136.273Z" fill="#B1B1B1" stroke="#B1B1B1" stroke-width="0.3"/>
<path d="M135.23 170.348C135.208 170.348 135.187 170.347 135.165 170.346C134.66 170.31 134.28 169.873 134.315 169.368C134.368 168.619 134.402 167.887 134.421 167.168C134.433 166.662 134.852 166.224 135.36 166.276C135.865 166.289 136.264 166.71 136.251 167.215C136.233 167.959 136.196 168.719 136.142 169.496C136.109 169.978 135.707 170.348 135.23 170.348Z" fill="#B1B1B1"/>
<path d="M135.229 163.539C134.754 163.539 134.352 163.173 134.316 162.692C132.758 141.995 116.818 136.512 116.141 136.289C115.661 136.13 115.399 135.613 115.556 135.133C115.714 134.653 116.232 134.392 116.711 134.548C116.888 134.606 134.49 140.602 136.143 162.555C136.181 163.059 135.803 163.498 135.298 163.537C135.275 163.538 135.252 163.539 135.229 163.539Z" fill="#B1B1B1"/>
</svg>
