<svg width="284" height="284" viewBox="0 0 284 284" fill="none" xmlns="http://www.w3.org/2000/svg">
<path d="M48.2063 78.252H95.4132" stroke="#1F1F1F" stroke-width="0.3" stroke-miterlimit="10" stroke-linecap="round"/>
<path d="M71.8098 78.252V68.408" stroke="#1F1F1F" stroke-width="0.3" stroke-miterlimit="10" stroke-linecap="round"/>
<path d="M1 78.252H48.2063" stroke="#1F1F1F" stroke-width="0.3" stroke-miterlimit="10" stroke-linecap="round"/>
<path d="M24.6028 78.252V68.408" stroke="#1F1F1F" stroke-width="0.3" stroke-miterlimit="10" stroke-linecap="round"/>
<path d="M71.8098 68.4077H119.017" stroke="#1F1F1F" stroke-width="0.3" stroke-miterlimit="10" stroke-linecap="round"/>
<path d="M95.4133 68.4078V58.5637" stroke="#1F1F1F" stroke-width="0.3" stroke-miterlimit="10" stroke-linecap="round"/>
<path d="M24.3081 89.0107H71.515" stroke="#1F1F1F" stroke-width="0.3" stroke-miterlimit="10" stroke-linecap="round"/>
<path d="M47.9116 89.0108V79.1667" stroke="#1F1F1F" stroke-width="0.3" stroke-miterlimit="10" stroke-linecap="round"/>
<path d="M71.8098 89.0107H119.017" stroke="#1F1F1F" stroke-width="0.3" stroke-miterlimit="10" stroke-linecap="round"/>
<path d="M95.4133 89.0108V79.1667" stroke="#1F1F1F" stroke-width="0.3" stroke-miterlimit="10" stroke-linecap="round"/>
<path d="M48.2063 98.8547H95.4132" stroke="#1F1F1F" stroke-width="0.3" stroke-miterlimit="10" stroke-linecap="round"/>
<path d="M71.8098 98.8548V89.0107" stroke="#1F1F1F" stroke-width="0.3" stroke-miterlimit="10" stroke-linecap="round"/>
<path d="M48.2063 58.7422H95.4132" stroke="#1F1F1F" stroke-width="0.3" stroke-miterlimit="10" stroke-linecap="round"/>
<path d="M71.8098 58.7423V48.8989" stroke="#1F1F1F" stroke-width="0.3" stroke-miterlimit="10" stroke-linecap="round"/>
<path d="M24.6028 68.4077H71.8097" stroke="#1F1F1F" stroke-width="0.3" stroke-miterlimit="10" stroke-linecap="round"/>
<path d="M48.2063 68.4078V58.5637" stroke="#1F1F1F" stroke-width="0.3" stroke-miterlimit="10" stroke-linecap="round"/>
<path d="M212.189 196.599H259.396" stroke="#1F1F1F" stroke-width="0.3" stroke-miterlimit="10" stroke-linecap="round"/>
<path d="M235.793 196.599V186.755" stroke="#1F1F1F" stroke-width="0.3" stroke-miterlimit="10" stroke-linecap="round"/>
<path d="M164.983 196.599H212.19" stroke="#1F1F1F" stroke-width="0.3" stroke-miterlimit="10" stroke-linecap="round"/>
<path d="M188.586 196.599V186.755" stroke="#1F1F1F" stroke-width="0.3" stroke-miterlimit="10" stroke-linecap="round"/>
<path d="M235.793 186.754H283" stroke="#1F1F1F" stroke-width="0.3" stroke-miterlimit="10" stroke-linecap="round"/>
<path d="M259.396 186.754V176.91" stroke="#1F1F1F" stroke-width="0.3" stroke-miterlimit="10" stroke-linecap="round"/>
<path d="M188.292 207.357H235.498" stroke="#1F1F1F" stroke-width="0.3" stroke-miterlimit="10" stroke-linecap="round"/>
<path d="M211.895 207.357V197.513" stroke="#1F1F1F" stroke-width="0.3" stroke-miterlimit="10" stroke-linecap="round"/>
<path d="M235.793 207.357H283" stroke="#1F1F1F" stroke-width="0.3" stroke-miterlimit="10" stroke-linecap="round"/>
<path d="M259.396 207.357V197.513" stroke="#1F1F1F" stroke-width="0.3" stroke-miterlimit="10" stroke-linecap="round"/>
<path d="M212.189 217.201H259.396" stroke="#1F1F1F" stroke-width="0.3" stroke-miterlimit="10" stroke-linecap="round"/>
<path d="M235.793 217.201V207.357" stroke="#1F1F1F" stroke-width="0.3" stroke-miterlimit="10" stroke-linecap="round"/>
<path d="M212.189 177.089H259.396" stroke="#1F1F1F" stroke-width="0.3" stroke-miterlimit="10" stroke-linecap="round"/>
<path d="M235.793 177.089V167.246" stroke="#1F1F1F" stroke-width="0.3" stroke-miterlimit="10" stroke-linecap="round"/>
<path d="M188.586 186.754H235.793" stroke="#1F1F1F" stroke-width="0.3" stroke-miterlimit="10" stroke-linecap="round"/>
<path d="M212.189 186.754V176.91" stroke="#1F1F1F" stroke-width="0.3" stroke-miterlimit="10" stroke-linecap="round"/>
<path d="M73.5493 149.039H120.756" stroke="#1F1F1F" stroke-width="0.3" stroke-miterlimit="10" stroke-linecap="round"/>
<path d="M97.1528 149.039V139.195" stroke="#1F1F1F" stroke-width="0.3" stroke-miterlimit="10" stroke-linecap="round"/>
<path d="M26.3423 149.039H73.5492" stroke="#1F1F1F" stroke-width="0.3" stroke-miterlimit="10" stroke-linecap="round"/>
<path d="M49.9458 149.039V139.195" stroke="#1F1F1F" stroke-width="0.3" stroke-miterlimit="10" stroke-linecap="round"/>
<path d="M97.1528 139.195H144.36" stroke="#1F1F1F" stroke-width="0.3" stroke-miterlimit="10" stroke-linecap="round"/>
<path d="M120.756 139.195V129.352" stroke="#1F1F1F" stroke-width="0.3" stroke-miterlimit="10" stroke-linecap="round"/>
<path d="M49.6511 159.799H96.8581" stroke="#1F1F1F" stroke-width="0.3" stroke-miterlimit="10" stroke-linecap="round"/>
<path d="M73.2546 159.799V149.955" stroke="#1F1F1F" stroke-width="0.3" stroke-miterlimit="10" stroke-linecap="round"/>
<path d="M97.1528 159.799H144.36" stroke="#1F1F1F" stroke-width="0.3" stroke-miterlimit="10" stroke-linecap="round"/>
<path d="M120.756 159.799V149.955" stroke="#1F1F1F" stroke-width="0.3" stroke-miterlimit="10" stroke-linecap="round"/>
<path d="M73.5493 169.643H120.756" stroke="#1F1F1F" stroke-width="0.3" stroke-miterlimit="10" stroke-linecap="round"/>
<path d="M97.1528 169.643V159.799" stroke="#1F1F1F" stroke-width="0.3" stroke-miterlimit="10" stroke-linecap="round"/>
<path d="M73.5493 129.531H120.756" stroke="#1F1F1F" stroke-width="0.3" stroke-miterlimit="10" stroke-linecap="round"/>
<path d="M97.1528 129.53V119.686" stroke="#1F1F1F" stroke-width="0.3" stroke-miterlimit="10" stroke-linecap="round"/>
<path d="M49.9458 139.195H97.1527" stroke="#1F1F1F" stroke-width="0.3" stroke-miterlimit="10" stroke-linecap="round"/>
<path d="M73.5493 139.195V129.352" stroke="#1F1F1F" stroke-width="0.3" stroke-miterlimit="10" stroke-linecap="round"/>
<path d="M210.074 4.30176V66.3066H160.772V4.30176H210.074Z" fill="#F2F2F2" stroke="#1F1F1F" stroke-width="0.5"/>
<path d="M263.114 4.30176V66.3066H213.812V4.30176H263.114Z" fill="#F2F2F2" stroke="#1F1F1F" stroke-width="0.5"/>
<path d="M210.074 70.4297V137.645H160.772V70.4297H210.074Z" fill="#F2F2F2" stroke="#1F1F1F" stroke-width="0.5"/>
<path d="M263.114 70.4297V137.645H213.812V70.4297H263.114Z" fill="#F2F2F2" stroke="#1F1F1F" stroke-width="0.5"/>
<path d="M266.686 1H157.104V141.786H266.686V1Z" fill="#F2F2F2" stroke="#1F1F1F" stroke-width="0.5" stroke-miterlimit="10" stroke-linecap="round"/>
<path d="M263.268 4.21411H160.522V138.571H263.268V4.21411Z" fill="#F2F2F2" stroke="#1F1F1F" stroke-width="0.5" stroke-miterlimit="10" stroke-linecap="round"/>
<path d="M263.268 66.7193H213.466V4.21411H210.324V66.7193H160.522V69.8622H210.324V138.572H213.466V69.8622H263.268V66.7193Z" fill="#F2F2F2" stroke="#1F1F1F" stroke-width="0.5" stroke-miterlimit="10" stroke-linecap="round"/>
<path d="M182.018 91.8909L93.907 92.5606C90.6665 92.5852 88.0188 89.9776 87.9925 86.7353C87.9678 83.4949 90.5755 80.8472 93.8177 80.8208L181.929 80.1511C185.169 80.1265 187.817 82.7342 187.843 85.9764C187.866 89.2186 185.259 91.8663 182.018 91.8909Z" fill="#B1B1B1"/>
<path d="M183.118 236.613L95.007 237.283C91.7665 237.307 89.1189 234.7 89.0925 231.458C89.0679 228.217 91.6756 225.569 94.9178 225.543L183.029 224.873C186.27 224.849 188.917 227.456 188.944 230.699C188.966 233.941 186.359 236.588 183.118 236.613Z" fill="#B1B1B1"/>
<path d="M178.68 92.0656C178.814 114.858 169.893 129.656 160.933 139.667C156.441 144.686 151.94 148.5 148.557 151.521C146.868 153.03 145.452 154.344 144.461 155.511C143.474 156.672 142.882 157.717 142.889 158.683C142.897 159.649 143.505 160.684 144.51 161.831C145.519 162.983 146.954 164.276 148.666 165.758C152.094 168.727 156.652 172.473 161.22 177.423C170.331 187.296 179.475 201.957 179.688 224.748L98.2531 225.367C98.1195 202.575 107.04 187.777 116 177.767C120.492 172.748 124.992 168.933 128.375 165.912C130.065 164.404 131.48 163.089 132.471 161.922C133.458 160.761 134.051 159.717 134.044 158.75C134.036 157.784 133.428 156.749 132.424 155.602C131.415 154.45 129.979 153.158 128.267 151.675C124.839 148.706 120.281 144.961 115.713 140.011C106.601 130.138 97.4572 115.476 97.2446 92.6845L178.68 92.0656Z" fill="white" stroke="#B1B1B1" stroke-width="0.3"/>
<path d="M135.838 146.988C136.798 147.812 137.679 148.568 138.395 149.34C139.1 148.557 139.969 147.788 140.916 146.95C144.856 143.462 150.592 138.388 151.717 128.597L124.759 128.802C126.031 138.573 131.845 143.561 135.838 146.988Z" fill="#B1B1B1"/>
<path d="M143.397 182.201C141.599 180.659 139.952 179.245 138.611 177.802C137.292 179.265 135.665 180.706 133.892 182.273C126.523 188.795 115.79 198.291 113.686 216.607L164.119 216.224C161.742 197.943 150.865 188.61 143.397 182.201Z" fill="#B1B1B1"/>
</svg>
